<!-- <svg id="visual" viewBox="0 0 1920 1080" width="1920" height="1080" xmlns="http://www.w3.org/2000/svg" xmlns:xlink="http://www.w3.org/1999/xlink" version="1.1">
    <rect x="0" y="0" width="1920" height="1080" fill="#f8f8f8"></rect>
    <defs>
        <linearGradient id="grad1_0" x1="43.8%" y1="100%" x2="100%" y2="0%">
            <stop offset="14.444444444444446%" stop-color="#f8f8f8" stop-opacity="1"></stop>
            <stop offset="85.55555555555554%" stop-color="#f8f8f8" stop-opacity="1"></stop>
        </linearGradient>
    </defs>
    <defs>
        <linearGradient id="grad2_0" x1="0%" y1="100%" x2="56.3%" y2="0%">
            <stop offset="14.444444444444446%" stop-color="#f8f8f8" stop-opacity="1"></stop>
            <stop offset="85.55555555555554%" stop-color="#f8f8f8" stop-opacity="1"></stop>
        </linearGradient>
    </defs>
    <g transform="translate(1920, 1080)">
        <path d="M-594 0C-534.5 -53.6 -474.9 -107.3 -457.3 -189.4C-439.7 -271.6 -464.1 -382.2 -420 -420C-376 -457.9 -263.6 -422.9 -182.2 -439.8C-100.8 -456.6 -50.4 -525.3 0 -594L0 0Z" fill="#46B2EF"></path>
    </g>
    <g transform="translate(0, 0)">
        <path d="M594 0C539.5 61 485 121.9 457.3 189.4C429.6 256.9 428.7 330.9 396 396C363.2 461.1 298.6 517.3 227.3 548.8C156 580.3 78 587.2 0 594L0 0Z" fill="#46B2EF"></path>
    </g>
</svg> -->

<!-- <svg xmlns="http://www.w3.org/2000/svg" xmlns:xlink="http://www.w3.org/1999/xlink" id="visual" viewBox="0 0 960 540" width="960" height="540" version="1.1">
    <rect x="0" y="0" width="960" height="540" fill="#fff" />
    <defs>
        <linearGradient id="grad1_0" x1="43.8%" y1="100%" x2="100%" y2="0%">
            <stop offset="14.444444444444446%" stop-color="#ffffff" stop-opacity="1" />
            <stop offset="85.55555555555554%" stop-color="#ffffff" stop-opacity="1" />
        </linearGradient>
    </defs>
    <defs>
        <linearGradient id="grad2_0" x1="0%" y1="100%" x2="56.3%" y2="0%">
            <stop offset="14.444444444444446%" stop-color="#ffffff" stop-opacity="1" />
            <stop offset="85.55555555555554%" stop-color="#ffffff" stop-opacity="1" />
        </linearGradient>
    </defs>
    <g transform="translate(960, 540)">
        <path d="M-486 0C-482.9 -66.6 -479.8 -133.2 -449 -186C-418.2 -238.8 -359.6 -277.8 -307.6 -307.6C-255.6 -337.4 -210.1 -358 -160 -386.2C-109.8 -414.4 -54.9 -450.2 0 -486L0 0Z" fill="#46B2EF" />
    </g>
    <g transform="translate(0, 0)">
        <path d="M486 0C486.8 71.5 487.7 142.9 449 186C410.3 229 332.2 243.6 285 285C237.7 326.3 221.4 394.4 179.1 432.4C136.8 470.3 68.4 478.2 0 486L0 0Z" fill="#46B2EF" />
    </g>
</svg> -->
<svg id="visual" viewBox="0 0 960 540" width="960" height="540" xmlns="http://www.w3.org/2000/svg" xmlns:xlink="http://www.w3.org/1999/xlink" version="1.1">
    <rect x="0" y="0" width="960" height="540" fill="#fff"></rect>
    <defs>
        <linearGradient id="grad1_0" x1="43.8%" y1="100%" x2="100%" y2="0%">
            <stop offset="14.444444444444446%" stop-color="#ffffff" stop-opacity="1"></stop>
            <stop offset="85.55555555555554%" stop-color="#ffffff" stop-opacity="1"></stop>
        </linearGradient>
    </defs>
    <defs>
        <linearGradient id="grad2_0" x1="0%" y1="100%" x2="56.3%" y2="0%">
            <stop offset="14.444444444444446%" stop-color="#ffffff" stop-opacity="1"></stop>
            <stop offset="85.55555555555554%" stop-color="#ffffff" stop-opacity="1"></stop>
        </linearGradient>
    </defs>
    <g transform="translate(960, 540)">
        <path d="M-351 0C-325.2 -38.2 -299.3 -76.4 -283.6 -117.5C-267.9 -158.6 -262.4 -202.6 -239.7 -239.7C-217 -276.8 -177.1 -306.9 -134.3 -324.3C-91.5 -341.7 -45.8 -346.3 0 -351L0 0Z" fill="#46B2EF"></path>
    </g>
    <g transform="translate(0, 0)">
        <path d="M351 0C348.1 48.6 345.1 97.2 323.4 133.9C301.6 170.6 261 195.4 228.4 228.4C195.8 261.4 171.1 302.5 134.3 324.3C97.6 346.1 48.8 348.5 0 351L0 0Z" fill="#46B2EF"></path>
    </g>
</svg>