<svg id="visual" viewBox="0 0 540 960" width="540" height="960" xmlns="http://www.w3.org/2000/svg" xmlns:xlink="http://www.w3.org/1999/xlink" version="1.1"><rect x="0" y="0" width="540" height="960" fill="#fff"></rect><defs><linearGradient id="grad1_0" x1="0%" y1="100%" x2="100%" y2="0%"><stop offset="30%" stop-color="#ffffff" stop-opacity="1"></stop><stop offset="70%" stop-color="#ffffff" stop-opacity="1"></stop></linearGradient></defs><defs><linearGradient id="grad2_0" x1="0%" y1="100%" x2="100%" y2="0%"><stop offset="30%" stop-color="#ffffff" stop-opacity="1"></stop><stop offset="70%" stop-color="#ffffff" stop-opacity="1"></stop></linearGradient></defs><g transform="translate(540, 960)"><path d="M-486 0C-482.9 -66.6 -479.8 -133.2 -449 -186C-418.2 -238.8 -359.6 -277.8 -307.6 -307.6C-255.6 -337.4 -210.1 -358 -160 -386.2C-109.8 -414.4 -54.9 -450.2 0 -486L0 0Z" fill="#46B2EF"></path></g><g transform="translate(0, 0)"><path d="M486 0C486.8 71.5 487.7 142.9 449 186C410.3 229 332.2 243.6 285 285C237.7 326.3 221.4 394.4 179.1 432.4C136.8 470.3 68.4 478.2 0 486L0 0Z" fill="#46B2EF"></path></g></svg>